# xmcd
#
# Track frame offsets: 
#        150
#        19887
#        37175
#        55847
#        74441
#        100996
#        125863
#        145914
#        164611
#        181805
#        197110
#        213226
#        234601
#        248114
#        271200
#        282653
#
# Disc length: 3935 seconds
#
# Revision: 1
# Processed by: cddbd v1.5.2PL0 Copyright (c) Steve Scherf et al.
# Submitted via: ExactAudioCopy v0.99pb3
#
DISCID=fe0f5d10
DTITLE=Various Artist - Body and Soul
DYEAR=2005
DGENRE=Soul
TTITLE0=Brian McKnight/ Back At One
TTITLE1=Marvin Gaye/What's Going On
TTITLE2=Lionel Richie/Hello
TTITLE3=Smokey Robinson/Being With You
TTITLE4=Ralph Tresvant/Sensitivity
TTITLE5=Johnny Gill/ Rub You The Right Way
TTITLE6=Jeffrey Osborne/You Should Be Mine (The Woo Woo Song)
TTITLE7=Warren G/Regulate
TTITLE8=Shaggy/It Wasn't Me
TTITLE9=Michael Jackson/Got To Be There
TTITLE10=Eddie Holman/Hey There Lonley Girl
TTITLE11=El Debarge/Who's Johnny
TTITLE12=Jimmy Ruffin/What Becomes Of The Broken Hearted
TTITLE13=Oran "Juice" Jones/ The Rain
TTITLE14=Jerry Butler/ Only The Strong Survive
TTITLE15=James Brown/ It's A Man's, Man's, Man's World
EXTD=
EXTT0=
EXTT1=
EXTT2=
EXTT3=
EXTT4=
EXTT5=
EXTT6=
EXTT7=
EXTT8=
EXTT9=
EXTT10=
EXTT11=
EXTT12=
EXTT13=
EXTT14=
EXTT15=
PLAYORDER=
